<svg width="34.166840" height="32.500328" viewBox="0 0 34.1668 32.5003" fill="none" xmlns="http://www.w3.org/2000/svg" xmlns:xlink="http://www.w3.org/1999/xlink">
	<desc>
			Created with Pixso.
	</desc>
	<defs/>
	<rect id="Icon Big" rx="-0.500000" width="29.000000" height="29.000000" transform="translate(2.750000 1.750000)" fill="#FFFFFF" fill-opacity="0"/>
	<path id="Vector" d="M29.7 22.91L32.91 21.25L32.91 15.41L29.44 13.96L29.58 7.91L22.08 10.41C20.78 10.08 18.97 9.58 17.52 9.58C10.37 9.58 4.58 14.03 4.58 19.51C4.58 22.66 6.49 25.47 9.48 27.29L8.67 29.96C8.62 30.1 8.61 30.26 8.64 30.42C8.67 30.57 8.73 30.72 8.82 30.84C8.91 30.97 9.03 31.07 9.17 31.14C9.31 31.21 9.47 31.25 9.62 31.25L12.56 31.25C12.78 31.25 12.99 31.18 13.16 31.05L15.49 29.3L19.55 29.3L21.88 31.05C22.05 31.18 22.26 31.25 22.48 31.25L25.42 31.25C25.57 31.25 25.73 31.21 25.86 31.14C26 31.07 26.13 30.97 26.22 30.84C26.31 30.72 26.37 30.57 26.4 30.42C26.43 30.26 26.42 30.1 26.37 29.96L25.56 27.29C27.34 26.21 28.74 24.77 29.58 23.12" stroke="#1C3144" stroke-opacity="1.000000" stroke-width="2.500000" stroke-linejoin="round" stroke-linecap="round"/>
	<path id="Vector" d="M23.16 17.67C23 17.51 22.91 17.3 22.91 17.08C22.91 16.86 23 16.65 23.16 16.49C23.31 16.33 23.52 16.25 23.75 16.25C23.97 16.25 24.18 16.33 24.33 16.49C24.49 16.65 24.58 16.86 24.58 17.08C24.58 17.3 24.49 17.51 24.33 17.67C24.18 17.82 23.97 17.91 23.75 17.91C23.52 17.91 23.31 17.82 23.16 17.67Z" stroke="#1C3144" stroke-opacity="1.000000" stroke-width="2.500000" stroke-linejoin="round"/>
	<path id="Vector" d="M1.25 12.91C1.25 12.91 1.25 16.91 4.58 17.91" stroke="#1C3144" stroke-opacity="1.000000" stroke-width="2.500000" stroke-linejoin="round" stroke-linecap="round"/>
	<path id="Vector" d="M19.25 9.17C19.46 8.55 19.58 7.88 19.58 7.19C19.58 3.91 16.97 1.25 13.75 1.25C10.52 1.25 7.91 3.91 7.91 7.19C7.91 8.76 8.51 10.18 9.48 11.25" stroke="#1C3144" stroke-opacity="1.000000" stroke-width="2.500000" stroke-linejoin="round"/>
</svg>
