<svg width="16.006165" height="16.006180" viewBox="0 0 16.0062 16.0062" fill="none" xmlns="http://www.w3.org/2000/svg" xmlns:xlink="http://www.w3.org/1999/xlink">
	<desc>
			Created with Pixso.
	</desc>
	<defs/>
	<rect id="Icon" rx="-0.500000" width="15.000000" height="15.000000" transform="translate(0.500000 0.506180)" fill="#FFFFFF" fill-opacity="0"/>
	<path id="Vector" d="M8 1.6C6.3 1.6 4.67 2.27 3.47 3.47C2.27 4.67 1.6 6.3 1.6 8C1.6 8.84 1.77 9.67 2.09 10.45C2.41 11.23 2.88 11.93 3.48 12.52C4.07 13.12 4.78 13.59 5.56 13.91C6.33 14.23 7.17 14.4 8.01 14.4C8.85 14.39 9.68 14.23 10.45 13.91C11.23 13.58 11.94 13.11 12.53 12.52C13.12 11.92 13.59 11.22 13.92 10.44C14.24 9.66 14.4 8.83 14.4 7.99C14.4 6.29 13.72 4.67 12.52 3.47C11.32 2.27 9.69 1.59 8 1.6ZM2.34 2.34C3.84 0.84 5.87 0 8 0C10.12 -0.01 12.15 0.83 13.65 2.33C15.16 3.83 16 5.87 16 7.99C16 9.04 15.8 10.08 15.39 11.05C14.99 12.02 14.4 12.9 13.66 13.65C12.92 14.39 12.04 14.98 11.07 15.38C10.1 15.79 9.06 15.99 8.01 16C6.96 16 5.92 15.79 4.95 15.39C3.97 14.99 3.09 14.4 2.35 13.66C1.61 12.91 1.02 12.03 0.61 11.06C0.21 10.09 0 9.05 0 8C0 5.88 0.84 3.84 2.34 2.34ZM8 4C8.44 3.99 8.8 4.35 8.8 4.79L8.8 7.66L10.97 9.83C11.28 10.14 11.28 10.65 10.97 10.96C10.66 11.27 10.15 11.27 9.84 10.96L7.44 8.56C7.29 8.41 7.2 8.21 7.2 8L7.2 4.8C7.2 4.35 7.56 4 8 4Z" fill="#1C3144" fill-opacity="1.000000" fill-rule="evenodd"/>
</svg>
