<svg width="16.007446" height="16.000000" viewBox="0 0 16.0074 16" fill="none" xmlns="http://www.w3.org/2000/svg" xmlns:xlink="http://www.w3.org/1999/xlink">
	<desc>
			Created with Pixso.
	</desc>
	<defs/>
	<rect id="Icon" rx="-0.500000" width="15.000000" height="15.000000" transform="translate(0.500000 0.500000)" fill="#FFFFFF" fill-opacity="0"/>
	<path id="Vector" d="M0.7 2.65C1.15 2.23 1.76 1.99 2.4 1.99L13.59 1.98C14.23 1.98 14.84 2.22 15.29 2.64C15.74 3.06 16 3.64 16 4.23L16 4.97C16 4.98 16 4.99 16 4.99L16 11.73C16 12.33 15.75 12.9 15.3 13.32C14.85 13.75 14.24 13.98 13.6 13.98L2.4 13.99C1.77 13.99 1.16 13.76 0.71 13.34C0.26 12.91 0 12.34 0 11.75L0 5.01C0 5 0 4.99 0 4.98L0 4.25C0 3.65 0.25 3.08 0.7 2.65ZM1.6 6.4L1.6 11.74C1.6 11.94 1.69 12.13 1.84 12.27C1.99 12.41 2.19 12.49 2.4 12.49L13.6 12.48C13.82 12.48 14.02 12.41 14.17 12.26C14.32 12.12 14.4 11.93 14.4 11.73L14.4 6.39L9.33 9.56C9.33 9.56 9.33 9.56 9.33 9.56C8.94 9.8 8.48 9.94 8 9.94C7.53 9.94 7.06 9.81 6.67 9.56C6.67 9.56 6.67 9.56 6.67 9.56L1.6 6.4ZM14.4 4.58L8.44 8.31L8.44 8.31C8.31 8.39 8.16 8.44 8 8.44C7.84 8.44 7.69 8.39 7.56 8.31L7.56 8.31L1.6 4.59L1.6 4.24C1.6 4.04 1.68 3.85 1.83 3.71C1.98 3.57 2.18 3.49 2.4 3.49L13.6 3.48C13.81 3.48 14.01 3.56 14.16 3.7C14.31 3.84 14.4 4.03 14.4 4.23L14.4 4.58Z" fill="#1C3144" fill-opacity="1.000000" fill-rule="evenodd"/>
</svg>
