<svg width="16.000000" height="16.000000" viewBox="0 0 16 16" fill="none" xmlns="http://www.w3.org/2000/svg" xmlns:xlink="http://www.w3.org/1999/xlink">
	<desc>
			Created with Pixso.
	</desc>
	<defs/>
	<rect id="Icon" rx="-0.500000" width="15.000000" height="15.000000" transform="translate(0.500000 0.500000)" fill="#FFFFFF" fill-opacity="0"/>
	<path id="Vector" d="M6.34 1.26C7.12 0.45 8.17 0 9.27 0L11.4 0C11.56 0 11.71 0.06 11.82 0.18C11.93 0.29 11.99 0.45 11.99 0.61L11.99 3.56C11.99 3.73 11.93 3.88 11.82 4C11.71 4.11 11.56 4.18 11.4 4.18L9.27 4.18C9.26 4.18 9.24 4.18 9.23 4.19C9.21 4.2 9.2 4.2 9.19 4.22C9.18 4.23 9.17 4.24 9.16 4.26C9.16 4.27 9.15 4.29 9.15 4.3L9.15 5.9L11.4 5.9C11.49 5.9 11.58 5.92 11.66 5.96C11.74 6.01 11.81 6.07 11.87 6.14C11.92 6.21 11.96 6.3 11.98 6.39C12 6.48 12 6.58 11.98 6.67L11.27 9.62C11.23 9.75 11.16 9.87 11.06 9.96C10.95 10.04 10.82 10.09 10.69 10.09L9.15 10.09L9.15 15.38C9.15 15.54 9.09 15.7 8.98 15.81C8.87 15.93 8.72 16 8.56 16L5.72 16C5.56 16 5.41 15.93 5.3 15.81C5.19 15.7 5.13 15.54 5.13 15.38L5.13 10.09L3.59 10.09C3.43 10.09 3.28 10.02 3.17 9.91C3.06 9.79 3 9.64 3 9.47L3 6.52C3 6.44 3.01 6.36 3.04 6.28C3.07 6.21 3.11 6.14 3.17 6.08C3.22 6.03 3.29 5.98 3.36 5.95C3.43 5.92 3.51 5.9 3.59 5.9L5.13 5.9L5.13 4.3C5.13 3.16 5.56 2.06 6.34 1.26ZM9.27 1.23C8.49 1.23 7.73 1.55 7.18 2.13C6.62 2.7 6.31 3.49 6.31 4.3L6.31 6.52C6.31 6.68 6.25 6.84 6.14 6.95C6.03 7.07 5.88 7.13 5.72 7.13L4.18 7.13L4.18 8.86L5.72 8.86C5.88 8.86 6.03 8.92 6.14 9.04C6.25 9.15 6.31 9.31 6.31 9.47L6.31 14.76L7.97 14.76L7.97 9.47C7.97 9.31 8.03 9.15 8.14 9.04C8.25 8.92 8.4 8.86 8.56 8.86L10.23 8.86L10.64 7.13L8.56 7.13C8.4 7.13 8.25 7.07 8.14 6.95C8.03 6.84 7.97 6.68 7.97 6.52L7.97 4.3C7.97 3.94 8.11 3.6 8.35 3.35C8.59 3.09 8.93 2.95 9.27 2.95L10.81 2.95L10.81 1.23L9.27 1.23Z" fill="#1C3144" fill-opacity="1.000000" fill-rule="evenodd"/>
</svg>
