<svg width="24.000000" height="24.000000" viewBox="0 0 24 24" fill="none" xmlns="http://www.w3.org/2000/svg" xmlns:xlink="http://www.w3.org/1999/xlink">
	<desc>
			Created with Pixso.
	</desc>
	<defs/>
	<path id="Vector" d="M8.82 2.49C9.63 -0.84 14.36 -0.84 15.17 2.49C15.31 3.06 15.97 3.34 16.47 3.03C19.39 1.25 22.74 4.6 20.96 7.52C20.65 8.02 20.93 8.68 21.5 8.82C24.83 9.63 24.83 14.36 21.5 15.17C20.93 15.31 20.65 15.97 20.96 16.47C22.74 19.39 19.39 22.74 16.47 20.96C15.97 20.65 15.31 20.93 15.17 21.5C14.36 24.83 9.63 24.83 8.82 21.5C8.68 20.93 8.02 20.65 7.52 20.96C4.6 22.74 1.25 19.39 3.03 16.47C3.34 15.97 3.06 15.31 2.49 15.17C-0.84 14.36 -0.84 9.63 2.49 8.82C3.06 8.68 3.34 8.02 3.03 7.52C1.25 4.6 4.6 1.25 7.52 3.03C8.02 3.34 8.68 3.06 8.82 2.49ZM12.84 3.06C12.62 2.17 11.37 2.17 11.15 3.06C10.63 5.21 8.16 6.23 6.27 5.08C5.5 4.61 4.61 5.5 5.08 6.27C6.23 8.16 5.21 10.63 3.06 11.15C2.17 11.37 2.17 12.62 3.06 12.84C5.21 13.36 6.23 15.83 5.08 17.72C4.61 18.49 5.5 19.38 6.27 18.91C8.16 17.76 10.63 18.78 11.15 20.93C11.37 21.82 12.62 21.82 12.84 20.93C13.36 18.78 15.83 17.76 17.72 18.91C18.49 19.38 19.38 18.49 18.91 17.72C17.76 15.83 18.78 13.36 20.93 12.84C21.82 12.62 21.82 11.37 20.93 11.15C18.78 10.63 17.76 8.16 18.91 6.27C19.38 5.5 18.49 4.61 17.72 5.08C15.83 6.23 13.36 5.21 12.84 3.06ZM12 9.59C10.67 9.59 9.59 10.67 9.59 12C9.59 13.32 10.67 14.4 12 14.4C13.32 14.4 14.4 13.32 14.4 12C14.4 10.67 13.32 9.59 12 9.59ZM7.2 12C7.2 9.34 9.34 7.2 12 7.2C14.65 7.2 16.79 9.34 16.79 12C16.79 14.65 14.65 16.79 12 16.79C9.34 16.79 7.2 14.65 7.2 12Z" fill="#1C3144" fill-opacity="1.000000" fill-rule="evenodd"/>
</svg>
