<svg width="16.000000" height="16.000000" viewBox="0 0 16 16" fill="none" xmlns="http://www.w3.org/2000/svg" xmlns:xlink="http://www.w3.org/1999/xlink">
	<desc>
			Created with Pixso.
	</desc>
	<defs/>
	<rect id="Icon" rx="-0.500000" width="15.000000" height="15.000000" transform="translate(0.500000 0.500000)" fill="#FFFFFF" fill-opacity="0"/>
	<path id="Vector" d="M8 0C11.31 0 14 2.32 14 6.29C14 7.87 13.05 9.82 11.91 11.59L11.72 11.88C11.65 11.98 11.59 12.07 11.52 12.17L11.33 12.45L11.23 12.6L11.03 12.87L10.83 13.15L10.63 13.41L10.44 13.67L10.24 13.92L10.05 14.17L9.86 14.4L9.68 14.63L9.42 14.95L9.17 15.25L8.93 15.52L8.86 15.6C8.38 16.14 7.58 16.11 7.13 15.6L6.9 15.34L6.66 15.05L6.49 14.84L6.31 14.63L6.03 14.29L5.84 14.05L5.65 13.8L5.46 13.54L5.26 13.28L5.06 13.01L4.86 12.74C4.8 12.64 4.73 12.55 4.66 12.46L4.47 12.17L4.27 11.88L4.08 11.59C2.94 9.82 2 7.87 2 6.29C2 2.32 4.68 0 8 0ZM8 1.32C5.3 1.32 3.41 3.2 3.41 6.29C3.41 7.4 4.02 8.88 5.03 10.52L5.21 10.8L5.4 11.08L5.59 11.37L5.69 11.52L5.89 11.81L6.1 12.1L6.31 12.39L6.53 12.69L6.76 12.99L6.88 13.13L7.11 13.43L7.33 13.7L7.44 13.83C7.5 13.91 7.59 13.98 7.68 14.02C7.78 14.07 7.89 14.09 7.99 14.09C8.1 14.09 8.21 14.07 8.31 14.02C8.4 13.98 8.49 13.91 8.55 13.83L8.75 13.59L8.99 13.29L9.23 12.99L9.45 12.69L9.67 12.39L9.89 12.1C9.96 12 10.03 11.9 10.1 11.81L10.3 11.52C10.47 11.27 10.63 11.04 10.78 10.8L10.96 10.52C11.97 8.88 12.58 7.4 12.58 6.29C12.58 3.2 10.69 1.32 8 1.32ZM8 2.98C8.74 2.98 9.46 3.26 9.99 3.75C10.52 4.25 10.82 4.93 10.82 5.63C10.82 6.33 10.52 7.01 9.99 7.5C9.46 8 8.74 8.28 8 8.28C7.25 8.28 6.53 8 6 7.5C5.47 7.01 5.17 6.33 5.17 5.63C5.17 4.93 5.47 4.25 6 3.75C6.53 3.26 7.25 2.98 8 2.98ZM8 4.3C7.62 4.3 7.26 4.44 7 4.69C6.73 4.94 6.58 5.28 6.58 5.63C6.58 5.98 6.73 6.32 7 6.57C7.26 6.82 7.62 6.96 8 6.96C8.37 6.96 8.73 6.82 8.99 6.57C9.26 6.32 9.41 5.98 9.41 5.63C9.41 5.28 9.26 4.94 8.99 4.69C8.73 4.44 8.37 4.3 8 4.3Z" fill="#1C3144" fill-opacity="1.000000" fill-rule="nonzero"/>
</svg>
