<svg width="16.009583" height="16.000000" viewBox="0 0 16.0096 16" fill="none" xmlns="http://www.w3.org/2000/svg" xmlns:xlink="http://www.w3.org/1999/xlink">
	<desc>
			Created with Pixso.
	</desc>
	<defs/>
	<rect id="Icon" rx="-0.500000" width="15.000000" height="15.000000" transform="translate(0.500000 0.500000)" fill="#FFFFFF" fill-opacity="0"/>
	<path id="Vector" d="M8 2.43C7.61 2.43 7.24 2.59 6.97 2.86C6.7 3.13 6.54 3.5 6.54 3.88C6.54 4.26 6.7 4.63 6.97 4.9C7.24 5.17 7.61 5.32 8 5.32C8.38 5.32 8.75 5.17 9.03 4.9C9.3 4.63 9.45 4.26 9.45 3.88C9.45 3.49 9.3 3.13 9.03 2.86C8.75 2.58 8.38 2.43 8 2.43ZM5.94 1.84C6.48 1.29 7.22 0.99 8 0.99C8.77 0.99 9.51 1.29 10.05 1.83C10.6 2.37 10.91 3.11 10.91 3.88C10.91 4.64 10.6 5.38 10.06 5.92C9.51 6.46 8.77 6.77 8 6.77C7.23 6.77 6.49 6.46 5.94 5.92C5.4 5.38 5.09 4.65 5.09 3.88C5.09 3.11 5.39 2.38 5.94 1.84ZM2.91 5.33C2.71 5.33 2.53 5.4 2.39 5.54C2.26 5.67 2.18 5.86 2.18 6.05C2.18 6.24 2.26 6.42 2.39 6.56C2.53 6.69 2.72 6.77 2.91 6.77C3.1 6.77 3.29 6.69 3.42 6.56C3.56 6.42 3.64 6.24 3.64 6.05C3.64 5.86 3.56 5.67 3.42 5.54C3.29 5.4 3.1 5.33 2.91 5.33ZM1.36 4.52C1.77 4.11 2.33 3.88 2.91 3.88C3.49 3.88 4.04 4.11 4.45 4.52C4.86 4.92 5.09 5.47 5.09 6.05C5.09 6.62 4.86 7.17 4.45 7.58C4.04 7.99 3.49 8.21 2.91 8.21C2.33 8.22 1.78 7.99 1.37 7.58C0.96 7.18 0.73 6.62 0.73 6.05C0.73 5.48 0.96 4.92 1.36 4.52ZM13.09 5.32C12.9 5.32 12.71 5.39 12.58 5.53C12.44 5.67 12.36 5.85 12.36 6.04C12.36 6.23 12.44 6.42 12.58 6.55C12.71 6.69 12.9 6.76 13.09 6.76C13.28 6.76 13.47 6.69 13.6 6.55C13.74 6.42 13.82 6.23 13.82 6.04C13.82 5.85 13.74 5.66 13.6 5.53C13.47 5.39 13.28 5.32 13.09 5.32ZM11.55 4.51C11.95 4.1 12.51 3.87 13.09 3.87C13.67 3.87 14.22 4.1 14.63 4.51C15.04 4.91 15.27 5.46 15.27 6.04C15.27 6.61 15.04 7.16 14.63 7.57C14.23 7.98 13.67 8.21 13.09 8.21C12.51 8.21 11.96 7.98 11.55 7.57C11.14 7.17 10.91 6.62 10.91 6.04C10.91 5.47 11.14 4.92 11.55 4.51ZM8 8.93C7.42 8.93 6.85 9.11 6.37 9.43C5.92 9.74 5.56 10.16 5.34 10.66L5.17 12.55L10.84 12.54L10.67 10.66C10.45 10.16 10.09 9.73 9.63 9.43C9.15 9.1 8.58 8.93 8 8.93ZM12.37 12.54L14.55 12.54L14.55 11.82C14.55 11.52 14.45 11.22 14.28 10.98C14.1 10.74 13.86 10.55 13.57 10.45C13.28 10.36 12.97 10.35 12.68 10.43C12.51 10.48 12.35 10.56 12.21 10.67C12.31 11.04 12.37 11.42 12.37 11.82L12.37 12.54ZM11.59 9.35C11.28 8.91 10.9 8.53 10.45 8.23C9.72 7.75 8.87 7.49 8 7.49C7.13 7.49 6.28 7.75 5.55 8.24C5.11 8.54 4.72 8.92 4.42 9.35C4.2 9.22 3.97 9.12 3.73 9.05C3.15 8.88 2.53 8.9 1.96 9.1C1.39 9.29 0.89 9.66 0.54 10.15C0.19 10.64 0 11.23 0 11.83L0 13.27C0 13.67 0.33 13.99 0.73 13.99L15.28 13.98C15.68 13.98 16 13.66 16 13.26L16 11.82C16 11.22 15.81 10.63 15.46 10.14C15.11 9.65 14.62 9.28 14.05 9.09C13.47 8.89 12.86 8.88 12.28 9.05C12.03 9.12 11.8 9.22 11.59 9.35ZM3.79 10.68C3.65 10.57 3.49 10.49 3.32 10.44C3.03 10.36 2.72 10.36 2.44 10.46C2.15 10.56 1.9 10.74 1.73 10.99C1.55 11.23 1.46 11.53 1.46 11.83L1.46 12.55L3.64 12.55L3.64 11.83C3.64 11.43 3.69 11.04 3.79 10.68Z" fill="#1C3144" fill-opacity="1.000000" fill-rule="evenodd"/>
</svg>
