<svg width="113.726929" height="18.637695" viewBox="0 0 113.727 18.6377" fill="none" xmlns="http://www.w3.org/2000/svg" xmlns:xlink="http://www.w3.org/1999/xlink">
	<desc>
			Created with Pixso.
	</desc>
	<defs/>
	<path id="HarmonyHR" d="M2.63 14.54L0 14.54L0 0L2.63 0L2.63 6.15L9.37 6.15L9.37 0L12.01 0L12.01 14.54L9.37 14.54L9.37 8.36L2.63 8.36L2.63 14.54ZM90.36 14.54L87.73 14.54L87.73 0L90.36 0L90.36 6.15L97.1 6.15L97.1 0L99.75 0L99.75 14.54L97.1 14.54L97.1 8.36L90.36 8.36L90.36 14.54ZM105.24 14.54L102.61 14.54L102.61 0L108.06 0C111.4 0 113.19 1.87 113.19 4.65C113.19 6.62 112.29 8.09 110.58 8.77L113.72 14.54L110.78 14.54L107.93 9.21L105.24 9.21L105.24 14.54ZM105.24 2.2L105.24 7.03L107.67 7.03C109.63 7.03 110.5 6.2 110.5 4.65C110.5 3.1 109.63 2.2 107.66 2.2L105.24 2.2ZM28.82 14.54L26.25 14.54L26.25 3.63L28.74 3.63L28.74 5.45L28.86 5.45C29.26 4.18 30.3 3.48 31.55 3.48C31.83 3.48 32.24 3.51 32.47 3.54L32.47 5.91C32.25 5.84 31.71 5.76 31.28 5.76C29.87 5.76 28.82 6.74 28.82 8.13L28.82 14.54ZM21.1 13.04C20.63 13.96 19.61 14.76 17.9 14.76C15.82 14.76 14.25 13.62 14.25 11.48C14.25 9.02 16.27 8.39 18.39 8.16C20.31 7.96 21.09 7.92 21.09 7.18L21.09 7.14C21.09 6.07 20.44 5.46 19.24 5.46C17.98 5.46 17.26 6.1 17 6.84L14.61 6.5C15.17 4.51 16.93 3.49 19.22 3.49C21.31 3.49 23.66 4.36 23.66 7.24L23.66 14.54L21.19 14.54L21.19 13.04L21.1 13.04ZM36.75 14.54L34.19 14.54L34.19 3.63L36.64 3.63L36.64 5.48L36.77 5.48C37.22 4.24 38.32 3.49 39.78 3.49C41.25 3.49 42.31 4.25 42.73 5.48L42.84 5.48C43.33 4.27 44.53 3.49 46.12 3.49C48.12 3.49 49.52 4.78 49.52 7.22L49.52 14.54L46.95 14.54L46.95 7.62C46.95 6.26 46.13 5.65 45.09 5.65C43.84 5.65 43.11 6.51 43.11 7.74L43.11 14.54L40.59 14.54L40.59 7.51C40.59 6.39 39.85 5.65 38.76 5.65C37.65 5.65 36.75 6.57 36.75 7.91L36.75 14.54ZM62.13 9.13C62.13 12.5 60.1 14.76 56.9 14.76C53.7 14.76 51.67 12.5 51.67 9.13C51.67 5.75 53.7 3.49 56.9 3.49C60.1 3.49 62.13 5.75 62.13 9.13ZM69.18 5.66C67.82 5.66 66.87 6.57 66.87 8.15L66.87 14.54L64.3 14.54L64.3 3.63L66.76 3.63L66.76 5.48L66.88 5.48C67.38 4.27 68.5 3.49 70.14 3.49C72.39 3.49 73.88 4.98 73.87 7.59L73.87 14.54L71.3 14.54L71.3 7.99C71.3 6.54 70.51 5.66 69.18 5.66ZM81.47 15.86C80.85 17.6 79.7 18.63 77.69 18.63C76.99 18.63 76.37 18.51 76.02 18.36L76.61 16.36C77.74 16.68 78.49 16.6 78.96 15.36L79.18 14.77L75.23 3.63L77.96 3.63L80.47 11.87L80.58 11.87L83.1 3.63L85.84 3.63L81.47 15.86ZM54.28 9.12C54.28 11.12 55.14 12.7 56.91 12.7C58.65 12.7 59.52 11.12 59.52 9.12C59.52 7.12 58.65 5.53 56.91 5.53C55.14 5.53 54.28 7.12 54.28 9.12ZM16.72 11.44C16.72 12.38 17.5 12.87 18.57 12.87C20.11 12.87 21.1 11.84 21.1 10.63L21.1 9.34C20.76 9.61 19.41 9.78 18.74 9.87C17.58 10.04 16.72 10.45 16.72 11.44Z" fill="#000000" fill-opacity="1.000000" fill-rule="evenodd"/>
</svg>
