<svg width="30.000000" height="30.000000" viewBox="0 0 30 30" fill="none" xmlns="http://www.w3.org/2000/svg" xmlns:xlink="http://www.w3.org/1999/xlink">
	<desc>
			Created with Pixso.
	</desc>
	<defs/>
	<rect id="Icon Big" rx="-0.500000" width="29.000000" height="29.000000" transform="translate(0.500000 0.500000)" fill="#FFFFFF" fill-opacity="0"/>
	<path id="Vector" d="M8.33 3.33C8.33 2.44 8.68 1.6 9.3 0.97C9.93 0.35 10.78 0 11.66 0L18.33 0C19.21 0 20.06 0.35 20.69 0.97C21.31 1.6 21.66 2.44 21.66 3.33L21.66 7.33C21.66 7.88 22.11 8.33 22.66 8.33L26.66 8.33C27.55 8.33 28.39 8.68 29.02 9.3C29.64 9.93 30 10.78 30 11.66L30 18.33C30 19.21 29.64 20.06 29.02 20.69C28.39 21.31 27.55 21.66 26.66 21.66L22.66 21.66C22.11 21.66 21.66 22.11 21.66 22.66L21.66 26.66C21.66 27.55 21.31 28.39 20.69 29.02C20.06 29.64 19.21 30 18.33 30L11.66 30C10.78 30 9.93 29.64 9.3 29.02C8.68 28.39 8.33 27.55 8.33 26.66L8.33 22.66C8.33 22.11 7.88 21.66 7.33 21.66L3.33 21.66C2.44 21.66 1.6 21.31 0.97 20.69C0.35 20.06 0 19.21 0 18.33L0 11.66C0 10.78 0.35 9.93 0.97 9.3C1.6 8.68 2.44 8.33 3.33 8.33L7.33 8.33C7.88 8.33 8.33 7.88 8.33 7.33L8.33 3.33ZM17.33 3.33L12.66 3.33C12.11 3.33 11.66 3.78 11.66 4.33L11.66 10.66C11.66 11.21 11.21 11.66 10.66 11.66L4.33 11.66C3.78 11.66 3.33 12.11 3.33 12.66L3.33 17.33C3.33 17.88 3.78 18.33 4.33 18.33L10.66 18.33C11.21 18.33 11.66 18.78 11.66 19.33L11.66 25.66C11.66 26.21 12.11 26.66 12.66 26.66L17.33 26.66C17.88 26.66 18.33 26.21 18.33 25.66L18.33 19.33C18.33 18.78 18.78 18.33 19.33 18.33L25.66 18.33C26.21 18.33 26.66 17.88 26.66 17.33L26.66 12.66C26.66 12.11 26.21 11.66 25.66 11.66L19.33 11.66C18.78 11.66 18.33 11.21 18.33 10.66L18.33 4.33C18.33 3.78 17.88 3.33 17.33 3.33Z" fill="#1C3144" fill-opacity="1.000000" fill-rule="evenodd"/>
</svg>
