<svg width="16.001404" height="16.000000" viewBox="0 0 16.0014 16" fill="none" xmlns="http://www.w3.org/2000/svg" xmlns:xlink="http://www.w3.org/1999/xlink">
	<desc>
			Created with Pixso.
	</desc>
	<defs/>
	<rect id="Icon" rx="-0.500000" width="15.000000" height="15.000000" transform="translate(0.500061 0.500000)" fill="#FFFFFF" fill-opacity="0"/>
	<path id="Union" d="M5.15198 14.5297L1.55035 14.5297Q1.35947 14.5297 1.1778 14.4887L1.17773 14.4887L1.17755 14.4887L1.17752 14.4887Q1.08203 14.4672 0.989044 14.4343Q0.793121 14.3651 0.62674 14.2523L0.626465 14.2521Q0.562927 14.2091 0.503723 14.1596Q0.34201 14.0246 0.229431 13.8566Q0.182343 13.7864 0.143829 13.7104Q0.065155 13.555 0.0295105 13.3904L0.0295105 13.3903L0.0295105 13.3903L0.0295105 13.3903Q0 13.254 0 13.1113L0 2.41837Q0 2.2757 0.02948 2.13941L0.0295105 2.13937L0.0295105 2.13937L0.0295105 2.13934Q0.065155 1.97467 0.143829 1.81933Q0.182343 1.74332 0.229431 1.67307L0.229431 1.67307Q0.34201 1.50513 0.503723 1.37011Q0.562927 1.32067 0.626434 1.27758L0.626434 1.27758L0.626465 1.27758Q0.792938 1.16465 0.989044 1.09539Q1.08209 1.06254 1.17764 1.041L1.17767 1.041L1.1778 1.04097Q1.35947 1.00006 1.55035 1.00006L14.3561 1.00006Q14.547 1.00006 14.7286 1.04097Q14.8243 1.06251 14.9174 1.09539Q15.1135 1.16465 15.2799 1.27755L15.28 1.27758Q15.3435 1.32067 15.4027 1.37011Q15.5643 1.50504 15.6769 1.67286L15.6771 1.67314Q15.7241 1.74336 15.7626 1.81933Q15.8413 1.97468 15.8769 2.13935Q15.9064 2.27567 15.9064 2.41837L15.9064 7.76485C15.9064 8.18486 15.5764 8.51485 15.1564 8.51485C14.7365 8.51485 14.4064 8.18486 14.4064 7.76485L14.4064 2.50524Q14.3853 2.50006 14.3561 2.50006L1.55035 2.50006Q1.52109 2.50006 1.5 2.50524L1.5 13.0245Q1.52109 13.0297 1.55035 13.0297L5.15198 13.0297C5.57196 13.0297 5.90198 13.3596 5.90198 13.7797C5.90198 14.1997 5.57196 14.5297 5.15198 14.5297ZM8.70337 4.42389L8.70337 7.76544Q8.70337 7.92077 8.64847 8.05336Q8.59354 8.18594 8.4837 8.29577Q8.37387 8.40561 8.2413 8.46053Q8.1087 8.51544 7.95337 8.51544L4.75195 8.51544C4.33194 8.51544 4.00195 8.18544 4.00195 7.76544C4.00195 7.34544 4.33194 7.01544 4.75195 7.01544L7.20337 7.01544L7.20337 4.42389C7.20337 4.00389 7.53339 3.67389 7.95337 3.67389C8.37338 3.67389 8.70337 4.00389 8.70337 4.42389ZM15.2134 12.32Q15.8548 11.4103 15.9966 10.1484C16.0436 9.73065 15.7524 9.3698 15.3348 9.3283C14.9172 9.28679 14.5523 9.58241 14.5053 10.0002Q14.401 10.9285 13.938 11.5387Q13.501 12.1146 12.6977 12.4685Q11.887 12.8258 10.6785 12.9717Q10.0093 13.0526 9.19745 13.0702L9.31796 12.9329C9.59668 12.6152 9.56863 12.1499 9.25421 11.8755C8.93976 11.6011 8.47369 11.6352 8.19498 11.9529L6.73105 13.6216Q6.52179 13.8601 6.54407 14.1741Q6.56564 14.479 6.7948 14.6789Q6.82611 14.7063 6.86029 14.7299Q6.89783 14.7558 6.93832 14.777L9.11108 15.9112C9.48151 16.1046 9.92841 15.9638 10.1268 15.5912C10.3251 15.2185 10.1899 14.7738 9.81952 14.5805L9.76059 14.5497Q10.3339 14.5213 10.8396 14.4602Q12.2713 14.2873 13.2884 13.8391Q14.4352 13.3337 15.1083 12.4624Q15.1118 12.4579 15.1153 12.4533Q15.1225 12.444 15.1295 12.4347Q15.1723 12.3783 15.213 12.3206L15.2134 12.32Z" clip-rule="evenodd" fill="#1C3144" fill-opacity="1.000000" fill-rule="evenodd"/>
</svg>
