<svg width="33.390961" height="32.000000" viewBox="0 0 33.391 32" fill="none" xmlns="http://www.w3.org/2000/svg" xmlns:xlink="http://www.w3.org/1999/xlink">
	<desc>
			Created with Pixso.
	</desc>
	<defs/>
	<rect id="Property 1=Job Time" rx="-0.500000" width="29.000000" height="29.000000" transform="translate(2.000000 0.500000)" fill="#FFFFFF" fill-opacity="0"/>
	<path id="primary" d="M24 23L24 29C24 29.39 23.84 29.77 23.56 30.06C23.27 30.34 22.89 30.5 22.5 30.5L3 30.5C2.6 30.5 2.22 30.34 1.93 30.06C1.65 29.77 1.5 29.39 1.5 29L1.5 5C1.5 4.6 1.65 4.22 1.93 3.93C2.22 3.65 2.6 3.5 3 3.5L13.5 3.5" stroke="#1C3144" stroke-opacity="1.000000" stroke-width="3.000000" stroke-linejoin="round" stroke-linecap="round"/>
	<path id="primary" d="M18 24.5L7.5 24.5M13.5 18.5L7.5 18.5" stroke="#1C3144" stroke-opacity="1.000000" stroke-width="3.000000" stroke-linejoin="round" stroke-linecap="round"/>
	<path id="Vector" d="M23.06 2.57C20.87 2.57 18.77 3.44 17.23 4.99C15.68 6.53 14.81 8.63 14.82 10.82C14.82 11.9 15.03 12.98 15.45 13.98C15.86 14.98 16.47 15.89 17.24 16.65C18 17.42 18.91 18.03 19.91 18.44C20.92 18.85 21.99 19.07 23.07 19.07C24.16 19.06 25.23 18.85 26.23 18.43C27.23 18.02 28.14 17.41 28.9 16.64C29.67 15.88 30.28 14.97 30.69 13.97C31.1 12.97 31.32 11.89 31.32 10.81C31.31 8.62 30.44 6.52 28.89 4.98C27.35 3.43 25.25 2.56 23.06 2.57ZM15.77 3.53C17.7 1.59 20.32 0.5 23.06 0.5C25.79 0.5 28.42 1.59 30.35 3.52C32.29 5.45 33.38 8.07 33.38 10.81C33.38 12.16 33.11 13.5 32.6 14.75C32.08 16.01 31.32 17.14 30.36 18.1C29.41 19.06 28.27 19.82 27.02 20.34C25.77 20.86 24.43 21.13 23.07 21.13C21.72 21.13 20.38 20.86 19.13 20.35C17.87 19.83 16.74 19.07 15.78 18.11C14.82 17.16 14.06 16.02 13.54 14.77C13.02 13.52 12.75 12.18 12.75 10.82C12.75 8.09 13.84 5.46 15.77 3.53ZM23.06 5.66C23.63 5.66 24.09 6.12 24.09 6.69L24.1 10.39L26.89 13.18C27.29 13.58 27.29 14.23 26.89 14.64C26.49 15.04 25.84 15.04 25.43 14.64L22.34 11.54C22.14 11.35 22.03 11.09 22.03 10.82L22.03 6.69C22.03 6.12 22.49 5.66 23.06 5.66Z" fill="#1C3144" fill-opacity="1.000000" fill-rule="evenodd"/>
</svg>
