<svg width="16.500183" height="17.499176" viewBox="0 0 16.5002 17.4992" fill="none" xmlns="http://www.w3.org/2000/svg" xmlns:xlink="http://www.w3.org/1999/xlink">
	<desc>
			Created with Pixso.
	</desc>
	<defs/>
	<path id="Vector" d="M3.51 3.45C3.21 3.75 2.79 3.93 2.36 3.94C1.93 3.92 1.52 3.74 1.22 3.44C0.92 3.14 0.75 2.73 0.75 2.3C0.76 1.89 0.94 1.5 1.24 1.21C1.54 0.92 1.94 0.75 2.36 0.75C2.78 0.75 3.18 0.92 3.48 1.21C3.78 1.5 3.95 1.89 3.97 2.3C3.97 2.73 3.81 3.14 3.51 3.45ZM2.36 6.04C3.2 6.04 3.8 5.9 3.8 6.84L3.8 15.97C3.8 16.92 3.19 16.73 2.36 16.73C1.54 16.73 0.92 16.92 0.92 15.97L0.92 6.84C0.92 5.9 1.52 6.04 2.36 6.04ZM6.8 6.06C7.11 6 8.17 6.06 8.54 6.06C8.91 6.06 9.06 6.65 9.05 7.1C9.36 6.69 9.78 6.35 10.27 6.14C10.75 5.93 11.28 5.84 11.81 5.89C12.33 5.85 12.85 5.93 13.34 6.11C13.82 6.29 14.27 6.57 14.64 6.93C15.01 7.29 15.3 7.72 15.49 8.2C15.68 8.68 15.76 9.19 15.74 9.7L15.74 15.94C15.74 16.89 15.15 16.69 14.31 16.69C13.47 16.69 12.87 16.89 12.87 15.94L12.87 11.06C12.9 10.81 12.86 10.56 12.78 10.32C12.69 10.09 12.55 9.87 12.38 9.69C12.2 9.51 11.98 9.37 11.75 9.28C11.51 9.19 11.25 9.15 11 9.16C10.74 9.16 10.49 9.2 10.26 9.3C10.02 9.4 9.81 9.54 9.64 9.73C9.47 9.91 9.34 10.13 9.25 10.36C9.17 10.6 9.14 10.85 9.17 11.1L9.17 15.97C9.17 16.92 8.56 16.73 7.72 16.73C6.88 16.73 6.29 16.92 6.29 15.97L6.29 6.84L6.29 6.84C6.29 6.31 6.49 6.12 6.8 6.06Z" stroke="#1C3144" stroke-opacity="1.000000" stroke-width="1.500000" stroke-linejoin="round"/>
</svg>
