<svg width="16.006798" height="15.993164" viewBox="0 0 16.0068 15.9932" fill="none" xmlns="http://www.w3.org/2000/svg" xmlns:xlink="http://www.w3.org/1999/xlink">
	<desc>
			Created with Pixso.
	</desc>
	<defs/>
	<path id="Vector" d="M6.39 1.59C5.12 1.6 3.9 2.1 3 3C2.1 3.9 1.59 5.13 1.6 6.4C1.6 7.03 1.72 7.65 1.96 8.24C2.2 8.82 2.56 9.35 3 9.79C3.45 10.24 3.98 10.59 4.56 10.83C5.14 11.07 5.77 11.2 6.4 11.2C7.03 11.19 7.65 11.07 8.24 10.83C8.82 10.59 9.35 10.23 9.79 9.79C10.24 9.34 10.59 8.81 10.83 8.23C11.07 7.65 11.2 7.02 11.2 6.39C11.19 5.12 10.69 3.9 9.79 3C8.89 2.1 7.66 1.59 6.39 1.59ZM1.87 1.87C3.07 0.67 4.69 0 6.39 0C8.09 -0.01 9.72 0.67 10.92 1.87C12.12 3.07 12.79 4.69 12.8 6.39C12.8 7.23 12.63 8.06 12.31 8.84C12.09 9.37 11.8 9.86 11.45 10.32L15.77 14.62C16.08 14.93 16.08 15.44 15.77 15.75C15.46 16.07 14.95 16.07 14.64 15.75L10.32 11.45C9.87 11.8 9.38 12.09 8.85 12.31C8.07 12.63 7.24 12.79 6.4 12.8C5.56 12.8 4.73 12.63 3.95 12.31C3.17 11.99 2.47 11.52 1.87 10.92C1.28 10.33 0.81 9.63 0.48 8.85C0.16 8.07 0 7.24 0 6.4C-0.01 4.7 0.67 3.07 1.87 1.87Z" fill="#1C3144" fill-opacity="1.000000" fill-rule="evenodd"/>
</svg>
