<svg width="33.004997" height="33.000000" viewBox="0 0 33.005 33" fill="none" xmlns="http://www.w3.org/2000/svg" xmlns:xlink="http://www.w3.org/1999/xlink">
	<desc>
			Created with Pixso.
	</desc>
	<defs/>
	<rect id="Property 1=mountain" rx="-0.500000" width="29.000000" height="29.000000" transform="translate(2.000000 1.500000)" fill="#FFFFFF" fill-opacity="0"/>
	<path id="primary" d="M14.83 31.5L20.83 19.18C20.96 18.9 21.18 18.66 21.44 18.49C21.71 18.33 22.02 18.24 22.33 18.24C22.64 18.24 22.95 18.33 23.21 18.49C23.48 18.66 23.69 18.9 23.83 19.18L29.83 31.5L14.83 31.5L3.16 31.5L11.7 15.7C11.84 15.43 12.05 15.21 12.31 15.06C12.57 14.9 12.86 14.82 13.16 14.82C13.46 14.82 13.76 14.9 14.02 15.06C14.27 15.21 14.49 15.43 14.63 15.7L18.78 23.4L14.83 31.5M31.5 31.5L1.5 31.5L31.5 31.5ZM22.34 9.27C22.89 10.1 23.67 10.74 24.58 11.11C25.5 11.49 26.5 11.59 27.47 11.4C28.44 11.21 29.33 10.73 30.03 10.03C30.73 9.33 31.21 8.44 31.4 7.47C31.59 6.5 31.49 5.5 31.11 4.58C30.74 3.67 30.1 2.89 29.27 2.34C28.45 1.79 27.48 1.5 26.5 1.5C25.17 1.5 23.9 2.02 22.96 2.96C22.02 3.9 21.5 5.17 21.5 6.5C21.5 7.48 21.79 8.45 22.34 9.27Z" stroke="#1C3144" stroke-opacity="1.000000" stroke-width="3.000000" stroke-linejoin="round"/>
</svg>
