<svg width="24.000000" height="24.000000" viewBox="0 0 24 24" fill="none" xmlns="http://www.w3.org/2000/svg" xmlns:xlink="http://www.w3.org/1999/xlink">
	<desc>
			Created with Pixso.
	</desc>
	<defs/>
	<path id="Vector" d="M12 2.4C9.45 2.4 7.01 3.41 5.21 5.21C3.41 7.01 2.4 9.45 2.4 12C2.4 13.26 2.64 14.5 3.13 15.67C3.61 16.83 4.32 17.89 5.21 18.78C6.1 19.67 7.16 20.38 8.32 20.86C9.49 21.35 10.73 21.6 12 21.6C13.26 21.6 14.5 21.35 15.67 20.86C16.83 20.38 17.89 19.67 18.78 18.78C19.67 17.89 20.38 16.83 20.86 15.67C21.35 14.5 21.6 13.26 21.6 12C21.6 9.45 20.58 7.01 18.78 5.21C16.98 3.41 14.54 2.4 12 2.4ZM3.51 3.51C5.76 1.26 8.81 0 12 0C15.18 0 18.23 1.26 20.48 3.51C22.73 5.76 24 8.81 24 12C24 13.57 23.68 15.13 23.08 16.59C22.48 18.04 21.59 19.37 20.48 20.48C19.37 21.59 18.04 22.48 16.59 23.08C15.13 23.68 13.57 24 12 24C10.42 24 8.86 23.68 7.4 23.08C5.95 22.48 4.62 21.59 3.51 20.48C2.4 19.37 1.51 18.04 0.91 16.59C0.31 15.13 0 13.57 0 12C0 8.81 1.26 5.76 3.51 3.51ZM12 7.2C10.23 7.2 8.96 8.04 8.55 8.91C8.27 9.51 7.56 9.76 6.96 9.48C6.36 9.2 6.1 8.48 6.38 7.88C7.29 5.95 9.58 4.79 12 4.79C13.56 4.79 15.01 5.27 16.11 6.09C17.21 6.91 18 8.14 18 9.59C18 12.08 15.79 13.8 13.41 14.26C13.33 14.28 13.26 14.32 13.22 14.36C13.2 14.38 13.2 14.39 13.2 14.39C13.2 15.06 12.66 15.6 12 15.6C11.33 15.6 10.8 15.06 10.8 14.4C10.8 13.02 11.89 12.11 12.96 11.9C14.73 11.57 15.6 10.47 15.6 9.59C15.6 9.06 15.31 8.49 14.67 8.01C14.03 7.53 13.09 7.2 12 7.2ZM10.8 18C10.8 17.33 11.33 16.79 12 16.79L12.01 16.79C12.67 16.79 13.21 17.33 13.21 18C13.21 18.66 12.67 19.2 12.01 19.2L12 19.2C11.33 19.2 10.8 18.66 10.8 18Z" fill="#1C3144" fill-opacity="1.000000" fill-rule="evenodd"/>
</svg>
