<svg width="21.000000" height="24.000000" viewBox="0 0 21 24" fill="none" xmlns="http://www.w3.org/2000/svg" xmlns:xlink="http://www.w3.org/1999/xlink">
	<desc>
			Created with Pixso.
	</desc>
	<defs/>
	<path id="Vector" d="M8.02 1.05C8.68 0.37 9.57 0 10.5 0C11.42 0 12.31 0.37 12.97 1.05C13.53 1.63 13.88 2.39 13.97 3.19C15.25 3.81 16.35 4.76 17.16 5.94C18.14 7.36 18.66 9.06 18.66 10.8L18.66 14.58C18.66 14.75 18.69 14.91 18.75 15.06C18.81 15.21 18.9 15.35 19.01 15.46L20.65 17.15C20.99 17.49 21.09 18.01 20.91 18.45C20.73 18.9 20.3 19.2 19.83 19.2L15.16 19.2C15.16 20.47 14.67 21.69 13.79 22.59C12.92 23.49 11.73 24 10.5 24C9.26 24 8.07 23.49 7.2 22.59C6.32 21.69 5.83 20.47 5.83 19.2L1.16 19.2C0.69 19.2 0.26 18.9 0.08 18.45C-0.1 18.01 0 17.49 0.34 17.15L1.98 15.46C2.2 15.23 2.33 14.91 2.33 14.59L2.33 10.8C2.33 7.43 4.25 4.54 7.02 3.19C7.11 2.39 7.46 1.63 8.02 1.05ZM17.06 16.79C16.87 16.54 16.72 16.27 16.6 15.98C16.42 15.54 16.33 15.06 16.33 14.58L16.33 10.8C16.33 9.55 15.95 8.34 15.26 7.33C14.56 6.32 13.58 5.55 12.44 5.14C11.97 4.97 11.66 4.51 11.66 4L11.66 3.59C11.66 3.28 11.54 2.97 11.32 2.75C11.1 2.52 10.8 2.4 10.5 2.4C10.19 2.4 9.89 2.52 9.67 2.75C9.45 2.97 9.33 3.28 9.33 3.59L9.33 4C9.33 4.51 9.02 4.97 8.55 5.14C6.28 5.96 4.66 8.18 4.66 10.8L4.66 14.59C4.66 15.39 4.4 16.16 3.93 16.79L17.06 16.79ZM8.16 19.2C8.16 19.83 8.41 20.44 8.85 20.89C9.28 21.34 9.88 21.6 10.5 21.6C11.11 21.6 11.71 21.34 12.14 20.89C12.58 20.44 12.83 19.83 12.83 19.2L8.16 19.2Z" fill="#1C3144" fill-opacity="1.000000" fill-rule="evenodd"/>
</svg>
