<svg width="16.003723" height="16.009613" viewBox="0 0 16.0037 16.0096" fill="none" xmlns="http://www.w3.org/2000/svg" xmlns:xlink="http://www.w3.org/1999/xlink">
	<desc>
			Created with Pixso.
	</desc>
	<defs/>
	<rect id="Icon" rx="-0.500000" width="15.000000" height="15.000000" transform="translate(0.500000 0.509613)" fill="#FFFFFF" fill-opacity="0"/>
	<path id="Vector" d="M7.32 0.03C7.8 0.14 8.09 0.63 7.97 1.1L7.14 4.44L10.64 4.44L11.58 0.67C11.7 0.19 12.18 -0.1 12.65 0.02C13.13 0.14 13.42 0.62 13.3 1.1L12.47 4.44L15.11 4.44C15.6 4.44 16 4.83 16 5.33C16 5.82 15.6 6.21 15.11 6.22L12.03 6.22L11.14 9.77L13.34 9.77C13.83 9.77 14.22 10.17 14.23 10.66C14.23 11.15 13.83 11.55 13.34 11.55L10.7 11.55L9.76 15.32C9.64 15.8 9.16 16.09 8.68 15.97C8.2 15.85 7.91 15.37 8.03 14.89L8.87 11.55L5.36 11.56L4.42 15.33C4.31 15.8 3.82 16.09 3.35 15.98C2.87 15.86 2.58 15.37 2.7 14.9L3.53 11.56L0.89 11.56C0.4 11.56 0 11.16 0 10.67C0 10.18 0.4 9.78 0.89 9.78L3.98 9.78L4.86 6.22L2.67 6.22C2.18 6.23 1.78 5.83 1.78 5.34C1.78 4.85 2.17 4.45 2.67 4.45L5.3 4.45L6.24 0.67C6.36 0.2 6.85 -0.09 7.32 0.03ZM6.69 6.22L5.81 9.78L9.31 9.78L10.19 6.22L6.69 6.22Z" fill="#1C3144" fill-opacity="1.000000" fill-rule="evenodd"/>
</svg>
