<svg width="16.000061" height="16.000000" viewBox="0 0 16.0001 16" fill="none" xmlns="http://www.w3.org/2000/svg" xmlns:xlink="http://www.w3.org/1999/xlink">
	<desc>
			Created with Pixso.
	</desc>
	<defs/>
	<path id="Vector" d="M15.22 10.75L11.46 9.06L11.45 9.06C11.25 8.97 11.04 8.94 10.82 8.96C10.61 8.98 10.41 9.05 10.23 9.17C10.21 9.18 10.19 9.2 10.17 9.21L8.22 10.87C6.99 10.28 5.72 9.01 5.12 7.79L6.78 5.82C6.8 5.8 6.81 5.78 6.83 5.76C6.94 5.58 7.01 5.38 7.03 5.17C7.05 4.96 7.01 4.74 6.93 4.55L6.93 4.54L5.24 0.77C5.13 0.51 4.94 0.3 4.7 0.16C4.46 0.03 4.18 -0.03 3.91 0C2.82 0.15 1.83 0.68 1.11 1.5C0.39 2.32 -0.01 3.38 0 4.47C0 10.83 5.16 16 11.52 16C12.61 16 13.67 15.6 14.49 14.88C15.31 14.16 15.84 13.17 15.99 12.08C16.02 11.81 15.96 11.53 15.83 11.29C15.69 11.05 15.48 10.86 15.22 10.75ZM11.52 14.72C8.8 14.71 6.2 13.63 4.28 11.71C2.36 9.79 1.28 7.19 1.28 4.47C1.27 3.69 1.55 2.94 2.07 2.35C2.58 1.76 3.29 1.38 4.06 1.27C4.06 1.28 4.06 1.28 4.06 1.28L5.74 5.04L4.09 7.02C4.07 7.04 4.06 7.06 4.05 7.09C3.93 7.27 3.85 7.48 3.84 7.7C3.83 7.92 3.87 8.14 3.97 8.34C4.69 9.82 6.18 11.31 7.68 12.03C7.88 12.13 8.1 12.17 8.32 12.15C8.55 12.13 8.76 12.06 8.94 11.94C8.96 11.93 8.98 11.91 9 11.89L10.95 10.23L14.71 11.92L14.72 11.92C14.61 12.69 14.23 13.41 13.64 13.92C13.05 14.44 12.3 14.72 11.52 14.72Z" fill="#1C3144" fill-opacity="1.000000" fill-rule="nonzero"/>
</svg>
