<svg width="16.750305" height="16.000000" viewBox="0 0 16.7503 16" fill="none" xmlns="http://www.w3.org/2000/svg" xmlns:xlink="http://www.w3.org/1999/xlink">
	<desc>
			Created with Pixso.
	</desc>
	<defs/>
	<rect id="Icon" rx="-0.500000" width="15.000000" height="15.000000" transform="translate(1.250000 0.500000)" fill="#FFFFFF" fill-opacity="0"/>
	<path id="primary" d="M12.03 11.29L12.03 14.3C12.03 14.5 11.95 14.69 11.81 14.83C11.67 14.97 11.48 15.05 11.28 15.05L1.5 15.05C1.3 15.05 1.11 14.97 0.97 14.83C0.82 14.69 0.75 14.5 0.75 14.3L0.75 2.25C0.75 2.05 0.82 1.86 0.97 1.72C1.11 1.58 1.3 1.5 1.5 1.5L6.77 1.5" stroke="#1C3144" stroke-opacity="1.000000" stroke-width="1.500000" stroke-linejoin="round" stroke-linecap="round"/>
	<path id="primary" d="M9.02 12.04L3.75 12.04M6.77 9.03L3.75 9.03" stroke="#1C3144" stroke-opacity="1.000000" stroke-width="1.500000" stroke-linejoin="round" stroke-linecap="round"/>
	<path id="Vector" d="M11.56 1.03C10.47 1.03 9.41 1.47 8.64 2.25C7.86 3.03 7.43 4.08 7.43 5.18C7.43 5.72 7.54 6.26 7.74 6.76C7.95 7.27 8.26 7.72 8.64 8.11C9.03 8.49 9.48 8.79 9.99 9C10.49 9.21 11.03 9.32 11.57 9.32C12.11 9.32 12.65 9.21 13.15 9C13.66 8.79 14.11 8.49 14.5 8.1C14.88 7.72 15.19 7.26 15.39 6.76C15.6 6.25 15.71 5.72 15.71 5.17C15.71 4.07 15.27 3.02 14.49 2.24C13.72 1.47 12.66 1.03 11.56 1.03ZM7.91 1.52C8.88 0.55 10.19 0 11.56 0C12.94 0 14.25 0.54 15.22 1.51C16.19 2.48 16.74 3.8 16.74 5.17C16.74 5.85 16.61 6.52 16.35 7.15C16.09 7.78 15.71 8.35 15.23 8.83C14.75 9.31 14.18 9.7 13.55 9.96C12.92 10.22 12.25 10.35 11.57 10.35C10.89 10.35 10.22 10.22 9.59 9.96C8.96 9.7 8.39 9.32 7.91 8.84C7.43 8.36 7.05 7.79 6.79 7.16C6.53 6.53 6.39 5.86 6.39 5.18C6.39 3.81 6.94 2.49 7.91 1.52ZM11.57 2.59C11.85 2.59 12.08 2.82 12.08 3.1L12.08 4.96L13.49 6.36C13.69 6.56 13.69 6.89 13.49 7.09C13.29 7.3 12.96 7.3 12.76 7.09L11.2 5.54C11.1 5.44 11.05 5.31 11.05 5.18L11.05 3.11C11.05 2.82 11.28 2.59 11.57 2.59Z" fill="#1C3144" fill-opacity="1.000000" fill-rule="evenodd"/>
</svg>
