<svg width="17.500732" height="16.000000" viewBox="0 0 17.5007 16" fill="none" xmlns="http://www.w3.org/2000/svg" xmlns:xlink="http://www.w3.org/1999/xlink">
	<desc>
			Created with Pixso.
	</desc>
	<defs/>
	<rect id="Icon" rx="-0.500000" width="15.000000" height="15.000000" transform="translate(1.250732 0.500000)" fill="#FFFFFF" fill-opacity="0"/>
	<path id="Vector" d="M1.98 12.8C1.86 12.84 1.76 12.92 1.68 13.02C1.61 13.12 1.57 13.24 1.57 13.36C1.57 13.49 1.61 13.61 1.68 13.71C1.76 13.81 1.86 13.88 1.98 13.92C10.66 17.32 16.18 12.07 15.34 6.26L16.75 3.49L15.12 3.49C13.08 1.12 7.69 1.24 8.58 6.3C8.58 6.3 5.7 6.79 2.01 3.34C1.92 3.26 1.82 3.2 1.7 3.18C1.58 3.15 1.46 3.16 1.35 3.2C1.23 3.24 1.14 3.31 1.06 3.4C0.99 3.5 0.95 3.6 0.94 3.72C0.55 5.24 0.75 6.85 1.49 8.25C2.24 9.65 3.48 10.75 5.01 11.36C4.11 12.03 3.08 12.52 1.98 12.8Z" stroke="#1C3144" stroke-opacity="1.000000" stroke-width="1.500000" stroke-linejoin="round"/>
</svg>
