<svg width="16.000000" height="15.999998" viewBox="0 0 16 16" fill="none" xmlns="http://www.w3.org/2000/svg" xmlns:xlink="http://www.w3.org/1999/xlink">
	<desc>
			Created with Pixso.
	</desc>
	<defs/>
	<path id="Vector" d="M7.99 1.6C6.29 1.6 4.67 2.27 3.47 3.47C2.27 4.67 1.59 6.3 1.6 8C1.6 8.84 1.76 9.67 2.08 10.45C2.26 10.86 2.47 11.25 2.72 11.62C4.36 10.81 6.16 10.39 8 10.4C9.89 10.39 11.68 10.83 13.28 11.61C13.53 11.24 13.74 10.85 13.91 10.44C14.23 9.66 14.4 8.83 14.4 7.99C14.39 6.29 13.72 4.67 12.52 3.47C11.32 2.27 9.69 1.59 7.99 1.6ZM14.13 13.13C14.65 12.5 15.08 11.8 15.39 11.05C15.79 10.08 16 9.04 16 7.99C15.99 5.87 15.15 3.83 13.65 2.33C12.15 0.83 10.11 -0.01 7.99 1.9e-6C5.87 0 3.83 0.84 2.33 2.34C0.83 3.84 -0.01 5.88 0 8C0 9.05 0.2 10.09 0.61 11.06C0.92 11.82 1.34 12.52 1.87 13.14C1.88 13.15 1.89 13.17 1.9 13.18C2.04 13.35 2.19 13.5 2.34 13.66C3.09 14.4 3.97 14.99 4.94 15.39C5.91 15.79 6.95 16 8 16C9.05 15.99 10.09 15.79 11.06 15.38C12.03 14.98 12.91 14.39 13.66 13.65C13.81 13.49 13.96 13.34 14.09 13.17C14.11 13.16 14.12 13.14 14.13 13.13ZM12.16 12.86C10.88 12.3 9.48 11.99 8 12L8 12C6.56 11.99 5.15 12.29 3.84 12.86C4.35 13.3 4.93 13.65 5.55 13.91C6.33 14.23 7.16 14.4 8 14.4C8.84 14.39 9.67 14.23 10.45 13.91C11.07 13.65 11.65 13.29 12.16 12.86ZM7.99 4.8C7.57 4.8 7.16 4.96 6.86 5.26C6.56 5.56 6.39 5.97 6.39 6.4C6.39 6.82 6.56 7.23 6.86 7.53C7.16 7.83 7.57 8 8 8C8.42 7.99 8.83 7.83 9.13 7.53C9.43 7.23 9.59 6.82 9.59 6.39C9.59 5.97 9.42 5.56 9.12 5.26C8.82 4.96 8.42 4.79 7.99 4.8ZM5.73 4.13C6.33 3.53 7.14 3.2 7.99 3.2C8.84 3.19 9.65 3.53 10.25 4.13C10.86 4.73 11.19 5.54 11.19 6.39C11.19 7.24 10.86 8.06 10.26 8.66C9.66 9.26 8.84 9.59 8 9.6C7.15 9.6 6.33 9.26 5.73 8.66C5.13 8.06 4.79 7.25 4.79 6.4C4.79 5.55 5.13 4.73 5.73 4.13Z" fill="#1C3144" fill-opacity="1.000000" fill-rule="evenodd"/>
</svg>
