<svg width="16.006165" height="16.006180" viewBox="0 0 16.0062 16.0062" fill="none" xmlns="http://www.w3.org/2000/svg" xmlns:xlink="http://www.w3.org/1999/xlink">
	<desc>
			Created with Pixso.
	</desc>
	<defs/>
	<rect id="Icon" rx="-0.500000" width="15.000000" height="15.000000" transform="translate(0.500000 0.506180)" fill="#FFFFFF" fill-opacity="0"/>
	<path id="Vector" d="M5.15 2.27C4.53 2.57 3.97 2.98 3.47 3.47C2.46 4.48 1.83 5.8 1.65 7.2L3.63 7.2C3.76 5.38 4.31 3.75 5 2.51C5.05 2.43 5.1 2.35 5.15 2.27ZM8 0C5.87 0 3.84 0.84 2.34 2.34C0.84 3.84 0 5.88 0 8C0 10.12 0.85 12.16 2.35 13.66C3.85 15.16 5.89 16 8.01 16C10.13 15.99 12.16 15.15 13.66 13.65C15.16 12.15 16 10.11 16 7.99C16 5.87 15.16 3.83 13.65 2.33C12.15 0.83 10.12 -0.01 8 0ZM7.2 2.17C6.94 2.45 6.66 2.83 6.4 3.3C5.83 4.31 5.36 5.68 5.23 7.2L7.2 7.2L7.2 2.17ZM7.2 8.8L5.23 8.8C5.36 10.32 5.83 11.68 6.4 12.69C6.67 13.16 6.94 13.54 7.21 13.82L7.2 8.8ZM5.16 13.73C5.11 13.65 5.06 13.56 5.01 13.48C4.31 12.25 3.76 10.61 3.63 8.8L1.65 8.8C1.83 10.2 2.47 11.51 3.48 12.52C3.97 13.02 4.54 13.42 5.16 13.73ZM10.86 13.72C11.47 13.42 12.04 13.01 12.53 12.52C13.54 11.51 14.18 10.19 14.35 8.79L12.37 8.79C12.25 10.61 11.69 12.24 11 13.48C10.95 13.56 10.9 13.64 10.86 13.72ZM10.77 8.79L8.8 8.79L8.81 13.82C9.07 13.54 9.34 13.16 9.6 12.69C10.18 11.68 10.64 10.31 10.77 8.79ZM10.77 7.19L8.8 7.19L8.8 2.17C9.06 2.45 9.34 2.83 9.6 3.3C10.17 4.31 10.64 5.67 10.77 7.19ZM12.37 7.19C12.24 5.38 11.69 3.74 10.99 2.51C10.94 2.43 10.9 2.34 10.85 2.26C11.46 2.57 12.03 2.97 12.52 3.47C13.53 4.48 14.17 5.79 14.35 7.19L12.37 7.19Z" fill="#1C3144" fill-opacity="1.000000" fill-rule="evenodd"/>
</svg>
